<?xml version="1.0" standalone="no"?><!DOCTYPE svg PUBLIC "-//W3C//DTD SVG 1.1//EN" "http://www.w3.org/Graphics/SVG/1.1/DTD/svg11.dtd"><svg t="1753672900383" class="icon" viewBox="0 0 1024 1024" version="1.1" xmlns="http://www.w3.org/2000/svg" p-id="18025" xmlns:xlink="http://www.w3.org/1999/xlink" width="200" height="200"><path d="M1008.543091 635.913926c-68.351169 274.332514-346.140085 441.178634-620.439605 372.735481-274.172542-67.839257-441.178634-346.240067-372.635498-620.151654 68.255185-274.552476 346.140085-441.498578 620.279632-373.211399 274.332514 68.479147 441.241623 346.240067 372.827465 620.692561zM737.634984 439.084996C747.874211 371.245739 696.065179 334.542092 624.996481 309.806374l23.040012-91.871098-56.090291-14.079563-22.396123 89.884442c-14.719452-3.712357-30.079793-7.135765-45.407141-10.656156l22.432117-90.750291-56.319251-14.079563-23.040012 92.384009c-12.159895-2.847507-24.095829-5.632025-35.839796-8.543521l-77.438596-19.196678-14.943413 60.031609s41.599799 9.598339 40.734949 10.080255c22.816051 5.791997 26.879347 20.735411 26.239458 32.671345l-63.017092 252.569281c-3.199446 7.071776-10.240227 17.312003-26.207464 13.40768 0.639889 0.86385-40.95991-10.240227-40.95991-10.240228l-28.160125 64.41485 72.959371 18.175854 39.679131 10.336211-23.035012 93.439826 56.319251 13.951585 23.040012-92.574976c15.359341 4.256263 30.079793 8.098598 44.799245 11.647984l-21.759233 91.903092 56.319251 14.079563 23.259974-93.438826c95.583455 18.207848 167.677976 10.9761 197.98173-75.678901 24.31979-69.854908-1.279778-110.080945-51.93501-136.350398 36.447691-8.223577 63.998922-32.415389 71.678593-82.334748zM609.188217 619.146828c-17.248014 69.987885-134.686686 31.999461-172.798089 22.624084l30.719682-123.74258c38.240381 9.8233 160.286255 28.577053 142.078407 101.118496z m17.50397-180.893688c-15.776269 63.582994-113.566342 31.359572-145.274853 23.45594l27.900171-112.639502c31.743505 7.679671 133.85383 22.368128 117.342688 88.926607z" fill="#F7931A" p-id="18026"></path></svg>