<?xml version="1.0" standalone="no"?><!DOCTYPE svg PUBLIC "-//W3C//DTD SVG 1.1//EN" "http://www.w3.org/Graphics/SVG/1.1/DTD/svg11.dtd"><svg t="1753678395602" class="icon" viewBox="0 0 1024 1024" version="1.1" xmlns="http://www.w3.org/2000/svg" p-id="25365" xmlns:xlink="http://www.w3.org/1999/xlink" width="200" height="200"><path d="M512 85.333333C276.266667 85.333333 85.333333 276.266667 85.333333 512s190.933333 426.666667 426.666667 426.666667 426.666667-190.933333 426.666667-426.666667S747.733333 85.333333 512 85.333333zM170.666667 512c0-188.586667 152.746667-341.333333 341.333333-341.333333 78.933333 0 151.253333 27.093333 209.066667 71.893333L242.56 721.066667C197.76 663.253333 170.666667 590.933333 170.666667 512z m341.333333 341.333333c-78.933333 0-151.253333-27.093333-209.066667-71.893333L781.44 302.933333C826.24 360.746667 853.333333 433.066667 853.333333 512c0 188.586667-152.746667 341.333333-341.333333 341.333333z" p-id="25366" fill="#d81e06"></path></svg>