<svg xmlns="http://www.w3.org/2000/svg" xmlns:svg="http://www.w3.org/2000/svg" version="1.1" xml:space="preserve" viewBox="0 0 172.27 141.12">
 <metadata id="metadata21" fill="#ca0019">image/svg+xml</metadata>

 <g class="layer">
  <title>Layer 1</title>
  <path d="m80.17,132.03c-0.26,1.62 -0.53,3.1 -0.74,4.58c-0.23,1.66 -1.22,2.63 -2.68,3.34c-5.47,2.63 -9.86,0.79 -11.5,-5.04c-0.66,-2.36 -1.02,-4.83 -1.29,-7.27c-0.15,-1.32 -0.53,-2.08 -1.78,-2.69c-11.46,-5.64 -21.62,-13.05 -30.16,-22.58c-1.83,-2.04 -3.49,-4.24 -5.12,-6.44c-3.87,-5.23 -3.27,-10.74 1.63,-15.06c3.73,-3.28 8.18,-5.33 12.74,-7.13c7.46,-2.95 15.18,-4.99 23.11,-6.18c0.47,-0.07 0.93,-0.22 1.48,-0.35c0.33,-3.61 0.44,-7.22 1.02,-10.75c0.9,-5.49 2.05,-10.95 3.23,-16.39c0.3,-1.35 0.79,-2.98 2.52,-3.23c1.63,-0.24 2.38,1.19 3.32,2.21c3.01,3.25 4.07,7.25 4.42,11.5c0.42,5.14 0.75,10.28 1.13,15.63c0.55,0 1.19,0.01 1.82,0c10.94,-0.13 21.61,1.7 32.09,4.67c5.06,1.43 9.67,3.88 13.39,7.74c3.51,3.64 5.03,7.88 3.38,12.83c-1.71,5.13 -5.46,8.24 -10.66,9.28c-3.28,0.66 -6.32,-0.83 -9.16,-2.42c-0.95,-0.53 -1,-1.48 -0.04,-2.08c1.26,-0.8 2.66,-1.39 3.96,-2.13c1.07,-0.61 2.19,-1.18 3.09,-1.99c1.3,-1.17 1.27,-2.73 -0.19,-3.7c-1.63,-1.09 -3.41,-2.19 -5.28,-2.65c-5.62,-1.37 -11.27,-2.69 -16.99,-3.54c-5.4,-0.81 -10.9,-1.01 -16.57,-1.5c-0.1,2.06 -0.26,3.91 -0.26,5.76c-0.02,10.44 0,20.89 -0.03,31.33c0,1.14 0.21,1.64 1.5,1.88c8.22,1.53 16.48,2.69 24.84,2.14c12.33,-0.81 24.3,-3.17 34.99,-9.85c6.9,-4.31 11.74,-10.24 13.28,-18.41c1.47,-7.84 -0.37,-15.15 -4.07,-22.06c-4.76,-8.87 -11.5,-16.09 -19.22,-22.39c-21.58,-17.6 -46.08,-29.15 -73.32,-34.9c-9.92,-2.1 -19.94,-3.24 -30.09,-3.04c-5.7,0.11 -11.38,0.6 -16.9,2.14c-0.85,0.24 -1.66,0.62 -2.48,0.93c0,0.16 -0.01,0.32 -0.01,0.48c0.44,0.18 0.88,0.39 1.33,0.53c1.79,0.56 3.62,1.02 5.37,1.68c0.56,0.21 1.37,1.06 1.28,1.4c-0.18,0.66 -0.83,1.52 -1.45,1.68c-4.13,1.09 -8.3,1.25 -12.31,-0.52c-2.59,-1.14 -3.54,-3.34 -2.14,-5.8c1.53,-2.68 3.51,-5.12 5.44,-7.54c0.59,-0.74 1.65,-1.25 2.59,-1.54c11.98,-3.71 24.24,-5.28 36.76,-4.3c34.73,2.73 65.86,14.93 93.51,36.02c10.21,7.79 19.07,16.91 25.65,28.06c3.72,6.3 6.58,12.96 7.43,20.26c0.9,7.71 -0.75,15.08 -4.03,22.06c-4.83,10.26 -13.14,16.83 -23.22,21.39c-9.44,4.27 -19.38,6.54 -29.71,7.31c-11.54,0.86 -22.85,-0.4 -34.02,-3.26c-0.28,-0.02 -0.55,-0.04 -0.88,-0.1zm-16.89,-17.23c0.21,-0.14 0.42,-0.29 0.63,-0.43c0.57,-11.05 1.13,-22.1 1.7,-33.22c-1.03,0 -1.62,-0.03 -2.2,0.01c-7.77,0.52 -15.52,1.21 -23.09,3.14c-2.84,0.73 -5.68,1.6 -8.38,2.72c-2.88,1.2 -3.27,3.55 -1.25,5.96c0.21,0.25 0.44,0.47 0.65,0.71c5.44,5.98 11.74,10.89 18.82,14.73c4.27,2.31 8.74,4.26 13.12,6.38z" id="path2" fill="#ca0019"/>
 </g>
</svg>