<svg xmlns="http://www.w3.org/2000/svg" viewBox="0 0 24 24"><g><path fill="#424242" d="M21,9.64A4.77,4.77,0,0,0,16.3,5.25H7.7A4.77,4.77,0,0,0,3,9.64l-.51,6.58a3.28,3.28,0,0,0,5.9,2.22l1.94-2.59a.26.26,0,0,1,.2-.1h3a.26.26,0,0,1,.2.1l1.94,2.59a3.31,3.31,0,0,0,2.63,1.31,3.29,3.29,0,0,0,3.27-3.53Z"/><circle cx="14" cy="11" r="1" fill="#ef5350"/><circle cx="18" cy="11" r="1" fill="#66bb6a"/><circle cx="16" cy="13" r="1" fill="#42a5f5"/><circle cx="16" cy="9" r="1" fill="#ffc107"/><path fill="#757575" d="M10,10.25H8.75V9a.75.75,0,0,0-1.5,0v1.25H6a.75.75,0,0,0,0,1.5H7.25V13a.75.75,0,0,0,1.5,0V11.75H10a.75.75,0,0,0,0-1.5Z"/></g></svg>