<svg xmlns="http://www.w3.org/2000/svg" width="256" height="256" fill="none" viewBox="0 0 256 256" id="meta">
  <rect width="224" height="224" x="16" y="16" fill="#EEE" rx="70"></rect>
  <path fill="#0081FB" d="M70.5066 143.258C70.5066 148.858 71.7359 153.158 73.3423 155.758C75.4487 159.165 78.5898 160.608 81.7927 160.608C85.9237 160.608 89.703 159.583 96.9854 149.511C102.82 141.438 109.695 130.105 114.321 123.001L122.155 110.965C127.596 102.606 133.894 93.3141 141.117 87.0153C147.011 81.8743 153.371 79.0186 159.771 79.0186C170.517 79.0186 180.753 85.2457 188.587 96.9249C197.16 109.715 201.322 125.826 201.322 142.452C201.322 152.336 199.374 159.598 196.059 165.336C192.856 170.885 186.613 176.429 176.112 176.429V160.608C185.104 160.608 187.348 152.346 187.348 142.891C187.348 129.417 184.206 114.463 177.286 103.779C172.374 96.2002 166.009 91.5697 159.007 91.5697C151.434 91.5697 145.339 97.2812 138.49 107.467C134.848 112.878 131.11 119.472 126.913 126.913L122.292 135.098C113.01 151.556 110.659 155.304 106.018 161.491C97.8831 172.324 90.9375 176.429 81.7927 176.429C70.9454 176.429 64.0852 171.731 59.8373 164.653C56.3692 158.885 54.666 151.316 54.666 142.692L70.5066 143.258Z"></path>
  <path fill="url(#paint0_linear_533_1566)" d="M67.1562 98.0414C74.4191 86.8475 84.8993 79.0186 96.9199 79.0186C103.882 79.0186 110.802 81.0792 118.029 86.9798C125.934 93.4309 134.359 104.054 144.87 121.563L148.64 127.846C157.737 143.003 162.914 150.801 165.943 154.479C169.84 159.201 172.569 160.608 176.113 160.608C185.104 160.608 187.348 152.346 187.348 142.891L201.322 142.452C201.322 152.336 199.374 159.598 196.059 165.336C192.856 170.885 186.614 176.429 176.113 176.429C169.585 176.429 163.802 175.011 157.406 168.978C152.49 164.347 146.742 156.121 142.32 148.725L129.167 126.754C122.568 115.728 116.514 107.508 113.011 103.784C109.242 99.7807 104.397 94.9456 96.6656 94.9456C90.4081 94.9456 85.0935 99.3373 80.6463 106.054L67.1562 98.0414Z"></path>
  <path fill="url(#paint1_linear_533_1566)" d="M96.6646 94.9456C90.4071 94.9456 85.0925 99.3373 80.6453 106.054C74.3574 115.545 70.5066 129.682 70.5066 143.258C70.5066 148.858 71.7359 153.158 73.3423 155.758L59.8373 164.653C56.3692 158.885 54.666 151.316 54.666 142.692C54.666 127.009 58.9706 110.664 67.1558 98.0414C74.4187 86.8475 84.8989 79.0186 96.9195 79.0186L96.6646 94.9456Z"></path>
  <defs>
    <linearGradient id="paint0_linear_533_1566" x1="187.999" x2="94.666" y1="141.333" y2="108" gradientUnits="userSpaceOnUse">
      <stop stop-color="#0082FB"></stop>
      <stop offset=".17" stop-color="#0073EE"></stop>
      <stop offset=".6" stop-color="#0064E1"></stop>
      <stop offset="1" stop-color="#0064E1"></stop>
    </linearGradient>
    <linearGradient id="paint1_linear_533_1566" x1="75.793" x2="75.793" y1="94.666" y2="154.666" gradientUnits="userSpaceOnUse">
      <stop stop-color="#0064E0"></stop>
      <stop offset="1" stop-color="#0082FB"></stop>
    </linearGradient>
  </defs>
</svg>
