<?xml version="1.0" standalone="no"?><!DOCTYPE svg PUBLIC "-//W3C//DTD SVG 1.1//EN" "http://www.w3.org/Graphics/SVG/1.1/DTD/svg11.dtd"><svg t="1753839737686" class="icon" viewBox="0 0 1024 1024" version="1.1" xmlns="http://www.w3.org/2000/svg" p-id="3585" xmlns:xlink="http://www.w3.org/1999/xlink" width="200" height="200"><path d="M128 0h768a128.384 128.384 0 0 1 128 128v768a128.384 128.384 0 0 1-128 128H128a128.384 128.384 0 0 1-128-128V128a128.384 128.384 0 0 1 128-128z" fill="#FFFFFF" p-id="3586"></path><path d="M582.4 896h118.4a200.896 200.896 0 0 0 198.4-195.2V326.4a196.672 196.672 0 0 0-198.4-195.2h-121.6a3.2 3.2 0 0 0-3.2 3.2v758.4c0 3.2 3.2 3.2 6.4 3.2z m147.2-422.4a76.8 76.8 0 1 1 0 153.6 75.136 75.136 0 0 1-76.8-73.6v-3.2a74.656 74.656 0 0 1 70.4-76.8zM492.8 128h-169.6a200.896 200.896 0 0 0-198.4 195.2v377.6a196.672 196.672 0 0 0 198.4 195.2h169.6a3.2 3.2 0 0 0 3.2-3.2V134.4c3.2-3.2 0-3.2-3.2-6.4z m-54.4 707.2h-112A135.2 135.2 0 0 1 192 700.8V326.4A135.2 135.2 0 0 1 326.4 192h108.8zM249.6 358.4a68.992 68.992 0 0 0 70.4 70.4h3.2a73.6 73.6 0 0 0 73.6-70.4v-3.2a73.6 73.6 0 0 0-70.4-73.6h-3.2a79.52 79.52 0 0 0-73.6 76.8z" fill="#E70012" p-id="3587"></path></svg>