<?xml version="1.0" standalone="no"?><!DOCTYPE svg PUBLIC "-//W3C//DTD SVG 1.1//EN" "http://www.w3.org/Graphics/SVG/1.1/DTD/svg11.dtd"><svg t="1753839719921" class="icon" viewBox="0 0 1225 1024" version="1.1" xmlns="http://www.w3.org/2000/svg" p-id="2545" xmlns:xlink="http://www.w3.org/1999/xlink" width="239.2578125" height="200"><path d="M653.786298 1023.394909l-190.836363-65.722182c-3.072-1.349818-4.328727-2.606545-3.677091-6.050909V8.657455A38.725818 38.725818 0 0 1 458.667753 0c16.523636 3.956364 32.581818 7.307636 48.314182 11.264A2251.217455 2251.217455 0 0 1 749.763025 88.436364a450.746182 450.746182 0 0 1 105.192728 55.854545 238.592 238.592 0 0 1 96.628363 160.674909 499.944727 499.944727 0 0 1 4.933819 138.658909 215.179636 215.179636 0 0 1-33.000728 100.258909 114.362182 114.362182 0 0 1-110.638545 51.712 197.818182 197.818182 0 0 1-69.818182-21.271272 8.657455 8.657455 0 0 1-5.492364-9.309091V254.138182a173.056 173.056 0 0 0-4.887272-47.150546 49.989818 49.989818 0 0 0-35.467637-38.493091 24.669091 24.669091 0 0 0-28.765091 11.357091 65.815273 65.815273 0 0 0-9.774545 33.838546 144.290909 144.290909 0 0 0-0.605091 15.918545V1024a11.682909 11.682909 0 0 0-4.282182-0.605091z m43.380364-21.317818V889.949091c0-4.654545 1.256727-6.702545 4.887273-8.052364 103.936-40.401455 208.523636-80.197818 312.552727-120.738909a107.426909 107.426909 0 0 0 18.944-9.309091 43.985455 43.985455 0 0 0 10.379636-8.610909 12.939636 12.939636 0 0 0-1.815273-21.178182 57.204364 57.204364 0 0 0-19.595636-8.657454 196.049455 196.049455 0 0 0-113.710545 9.309091 19105.093818 19105.093818 0 0 0-212.759273 81.594182v-124.090182c0-4.654545 1.163636-6.656 4.654545-8.005818a663.970909 663.970909 0 0 1 151.04-35.793455 570.274909 570.274909 0 0 1 250.135273 23.924364c23.831273 8.005818 47.104 17.966545 70.376727 27.927272a100.864 100.864 0 0 1 39.703273 30.533819 50.594909 50.594909 0 0 1-0.558545 68.375272 166.213818 166.213818 0 0 1-54.411637 40.494546c-26.344727 11.915636-52.596364 22.528-79.499636 33.140363-109.474909 43.101091-218.763636 85.550545-328.378182 128.093091-15.918545 5.957818-31.837091 12.613818-47.709091 18.618182a29.370182 29.370182 0 0 1-4.282182 1.256727zM283.982662 906.519273a633.250909 633.250909 0 0 1-191.394909-35.141818 177.989818 177.989818 0 0 1-61.346909-30.580364 105.890909 105.890909 0 0 1-21.457455-23.272727 49.058909 49.058909 0 0 1 5.585455-65.163637 210.432 210.432 0 0 1 36.072727-27.229091 604.392727 604.392727 0 0 1 98.443636-45.102545q132.096-50.734545 263.586909-101.515636a8.610909 8.610909 0 0 0 6.050909-0.698182v119.482182a6.516364 6.516364 0 0 1-4.887272 7.307636c-66.048 25.227636-132.096 51.2-198.144 76.986182a187.438545 187.438545 0 0 0-22.016 11.264 18.618182 18.618182 0 0 0-7.307637 6.656 12.893091 12.893091 0 0 0 1.815273 21.178182 73.495273 73.495273 0 0 0 25.088 10.007272 197.911273 197.911273 0 0 0 110.638546-11.264c29.975273-11.264 59.298909-23.272727 88.715636-35.141818a32.581818 32.581818 0 0 1 4.887273-2.094545v112.407272c-10.472727 1.908364-20.852364 3.909818-31.232 5.259637a592.802909 592.802909 0 0 1-90.903273 6.749091z" fill="#000000" fill-opacity="0.85" p-id="2546"></path></svg>