<?xml version="1.0" standalone="no"?><!DOCTYPE svg PUBLIC "-//W3C//DTD SVG 1.1//EN" "http://www.w3.org/Graphics/SVG/1.1/DTD/svg11.dtd"><svg t="1750833058072" class="icon" viewBox="0 0 1024 1024" version="1.1" xmlns="http://www.w3.org/2000/svg" p-id="6059" xmlns:xlink="http://www.w3.org/1999/xlink" width="200" height="200"><path d="M664.453 289.837c0.254 0.484 0.538 0.957 0.801 1.441a151.037 151.037 0 0 0 63.619 63.64c0.484 0.254 0.956 0.528 1.451 0.79a153.591 153.591 0 0 0 13.268 5.955c17.075 6.765 35.623 10.605 55.128 10.605 77.119 0 140.421-57.96 149.417-132.658l-22.525 22.535c-46.283 46.281-121.316 46.281-167.599 0s-46.28-121.316 0-167.597l22.526-22.525c-74.688 8.996-132.647 72.3-132.647 149.417 0 19.494 3.83 38.053 10.616 55.128a151.242 151.242 0 0 0 5.945 13.269m-41.346 165.69l69.185-72.382a194.15 194.15 0 0 1-55.277-55.277l-73.467 70.185c4.977 3.734 9.776 7.68 14.16 12.078l45.399 45.397zM377.055 570.47L85.06 843.674c-11.688 11.699-18.928 27.859-18.928 45.712 0 35.698 28.934 64.642 64.64 64.642 17.854 0 34.014-7.24 45.713-18.928L447.44 645.535l-52.563-52.572c-6.774-6.775-12.686-14.35-17.821-22.494M130.774 910.934c-11.91 0-21.548-9.649-21.548-21.548s9.637-21.546 21.548-21.546c11.909 0 21.546 9.647 21.546 21.546s-9.637 21.548-21.546 21.548m51.183-781.93L91.173 76.043l-19.61 19.611 52.962 90.784 57.432-57.432z m731.576 677.889L547.241 440.599c-15.603-15.592-37.15-25.239-60.949-25.239-47.595 0-86.186 38.59-86.186 86.186 0 23.8 9.637 45.346 25.24 60.947l366.293 366.283c15.592 15.593 37.148 25.252 60.946 25.252 47.598 0 86.186-38.591 86.186-86.188 0.001-23.799-9.634-45.345-25.238-60.947z m-60.947 82.493a21.476 21.476 0 0 1-15.233-6.311L621.885 667.607a21.481 21.481 0 0 1-6.311-15.235c0-11.898 9.637-21.544 21.546-21.544a21.47 21.47 0 0 1 15.233 6.311l215.468 215.468a21.476 21.476 0 0 1 6.311 15.233c0 11.899-9.635 21.546-21.546 21.546" fill="#FFFFFF" p-id="6060"></path><path d="M913.533 806.893L547.241 440.599c-15.603-15.592-37.15-25.239-60.949-25.239-47.595 0-86.186 38.59-86.186 86.186 0 23.8 9.637 45.346 25.24 60.947l366.293 366.283c15.592 15.593 37.148 25.252 60.946 25.252 47.598 0 86.186-38.591 86.186-86.188 0.001-23.799-9.634-45.345-25.238-60.947m-60.947 82.493a21.476 21.476 0 0 1-15.233-6.311L621.885 667.607a21.481 21.481 0 0 1-6.311-15.235c0-11.898 9.637-21.544 21.546-21.544a21.47 21.47 0 0 1 15.233 6.311l215.468 215.468a21.476 21.476 0 0 1 6.311 15.233c0 11.899-9.635 21.546-21.546 21.546" fill="#EE6A56" p-id="6061"></path><path d="M925.613 262.145c-21.453 21.452-51.079 34.709-83.8 34.709-65.45 0-118.505-53.056-118.505-118.506 0-32.73 13.264-62.357 34.717-83.788l22.767-22.778c-74.825 8.88-132.898 72.434-132.898 149.658 0 83.305 67.533 150.826 150.826 150.826 77.224 0 140.79-58.064 149.67-132.9l-22.777 22.78z" fill="#86AEDD" p-id="6062"></path><path d="M432.428 630.828v-0.317l-21.233-21.231h-0.315v21.548h21.548z m-43.096 21.544h21.548v-21.544h-21.548v21.544z m-21.546-21.544h21.546V609.28h-21.546v21.548z m21.546 64.638h11.943l9.605-10.383V673.92h-21.548v21.546z m-54.255-86.186l-10.383 9.595v11.953h21.546V609.28h-11.163z m54.255-22.568c-4.449-5.122-8.627-10.479-12.277-16.234l-9.269 8.565v8.688h21.546v-1.019z m21.548 87.208h10.322l11.226-12.151v-9.397H410.88v21.548z m-43.094 0h21.546v-21.548h-21.546v21.548z m64.956-43.092h-0.314v21.544h8.688l6.325-6.837-14.699-14.707z m-86.502 21.544h21.546v-21.544H346.24v21.544z m21.546-64.64h-9.395L346.24 598.96v10.321h21.546v-21.548z m43.094 21.548v-0.315l-16.003-16.002c-1.64-1.653-3.092-3.483-4.638-5.23h-0.907v21.547h21.548z" fill="" p-id="6063"></path><path d="M654.638 487.07l79.285-83.04c20.284 7.206 42.03 11.33 64.797 11.33 107.103 0 193.92-86.819 193.92-193.92 0-29.921-6.975-58.138-19.064-83.44l-86.05 86.059c-11.7 11.689-27.86 18.927-45.715 18.927-35.707 0-64.64-28.943-64.64-64.64 0-17.853 7.239-34.014 18.928-45.712l86.06-86.051C856.858 34.484 828.641 27.52 798.72 27.52c-107.103 0-193.92 86.819-193.92 193.92 0 22.767 4.125 44.513 11.332 64.799l-95.53 90.784c-10.94-3.019-22.4-4.755-34.31-4.755-27.142 0-52.288 8.395-73.088 22.672L198.78 173.12l33.414-33.403a21.481 21.481 0 0 0 6.312-15.235c0-7.943-4.346-14.803-10.732-18.538l0.044-0.073-129.28-75.414-0.042 0.075c-3.187-1.873-6.85-3.01-10.815-3.01a21.472 21.472 0 0 0-15.235 6.313L29.353 76.927A21.47 21.47 0 0 0 23.04 92.16c0 3.967 1.137 7.628 3.01 10.816l-0.085 0.042 75.414 129.28 0.083-0.042c3.735 6.386 10.594 10.732 18.538 10.732 5.944 0 11.33-2.41 15.235-6.313l33.076-33.078 213.984 221.368c-15.813 21.452-25.283 47.88-25.283 76.581 0 8.922 0.907 17.634 2.63 26.04L54.593 813.205c-19.496 19.508-31.552 46.441-31.552 76.182 0 59.496 48.228 107.734 107.734 107.734 29.742 0 56.676-12.056 76.182-31.552l271.152-289.375 283.063 283.065c23.39 23.395 55.708 37.862 91.415 37.862 71.395 0 129.28-57.885 129.28-129.28 0-35.707-14.466-68.027-37.863-91.427L654.638 487.07zM124.525 186.436L71.562 95.653l19.611-19.61 90.784 52.962-57.432 57.432zM780.54 72.023l-22.525 22.525c-46.281 46.281-46.281 121.306 0 167.597 46.28 46.281 121.314 46.281 167.598 0l22.525-22.535c-8.997 74.698-72.3 132.656-149.418 132.656-19.505 0-38.053-3.84-55.128-10.605a153.591 153.591 0 0 1-13.268-5.954c-0.495-0.263-0.967-0.536-1.451-0.79a151.037 151.037 0 0 1-63.619-63.64c-0.263-0.484-0.547-0.958-0.8-1.441a150.83 150.83 0 0 1-5.945-13.268c-6.785-17.075-10.615-35.634-10.615-55.128 0-77.117 57.958-140.421 132.646-149.417m-143.63 255.71a194.445 194.445 0 0 0 55.518 55.508l-68.934 72.678-45.775-45.787c-4.525-4.524-9.47-8.595-14.624-12.403l73.815-69.997zM176.486 935.1c-11.699 11.688-27.859 18.928-45.712 18.928-35.707 0-64.64-28.944-64.64-64.642 0-17.853 7.238-34.013 18.927-45.712l292.123-272.995c5.102 8.059 10.984 15.571 17.695 22.284l52.404 52.394L176.486 935.1z m676.1 18.928c-23.798 0-45.355-9.66-60.946-25.252L501.192 638.339l-24.461-24.483-51.384-51.363c-6.397-6.407-11.719-13.845-15.865-21.999a88.276 88.276 0 0 1-3.755-8.554c-0.149-0.368-0.274-0.746-0.411-1.125a86.917 86.917 0 0 1-2.389-7.756c-0.169-0.663-0.358-1.314-0.515-1.977-0.569-2.43-1-4.925-1.359-7.428-0.105-0.778-0.273-1.546-0.358-2.325-0.356-3.209-0.589-6.48-0.589-9.785 0-2.347 0.17-4.671 0.359-6.975a112.82 112.82 0 0 1 0.693-5.86c5.914-39.433 38.444-70.068 78.76-73.025 2.104-0.158 4.219-0.327 6.374-0.327 3.737 0 7.387 0.317 11.007 0.779a73.446 73.446 0 0 1 2.546 0.4c3.187 0.506 6.334 1.147 9.406 2.01 0.337 0.095 0.684 0.159 1 0.264a86.355 86.355 0 0 1 20.862 9.217c5.85 3.576 11.299 7.753 16.13 12.572l46.595 46.597 31.048 31.047 288.649 288.65c15.602 15.602 25.239 37.148 25.239 60.947-0.002 47.597-38.59 86.188-86.188 86.188m15.235-101.421L652.353 637.139a21.476 21.476 0 0 0-15.233-6.311c-11.91 0-21.546 9.646-21.546 21.544a21.476 21.476 0 0 0 6.311 15.235l215.468 215.468a21.48 21.48 0 0 0 15.233 6.311c11.91 0 21.546-9.647 21.546-21.546a21.47 21.47 0 0 0-6.311-15.233zM130.774 867.84c-11.91 0-21.548 9.647-21.548 21.546s9.637 21.548 21.548 21.548c11.909 0 21.546-9.649 21.546-21.548s-9.637-21.546-21.546-21.546" fill="" p-id="6064"></path></svg>