<svg xmlns="http://www.w3.org/2000/svg" enable-background="new 0 0 512 512" viewBox="0 0 512 512" width="288" height="288"><path fill="#9B59B6" d="M158.795,305.437c-80.833,0-146.362-65.528-146.362-146.362
			c0-80.851,65.528-146.379,146.362-146.379c80.851,0,146.379,65.528,146.379,146.379
			C305.174,239.909,239.646,305.437,158.795,305.437z" class="svgShape color04b18b-0 selectable"></path><path fill="#34495E" d="M305.164,159.094c0,80.814-65.518,146.332-146.38,146.332
			c-44.767,0-84.857-20.118-111.649-51.781c4.092,0.389,8.281,0.585,12.47,0.585c80.863,0,146.381-65.518,146.381-146.381
			c0-35.998-13.006-69.025-34.635-94.55C246.319,19.631,305.164,82.469,305.164,159.094z" opacity=".4" class="svgShape colorffffff-1 selectable"></path><path fill="#1ABC9C" d="M480.903,308.252l-49.926,19.376c-9.841,3.819-12.511,16.493-5.046,23.957l54.919,54.919
			c12.66,12.66,12.66,33.185,0,45.845l-28.763,28.762c-12.66,12.66-33.185,12.66-45.845,0l-54.919-54.919
			c-7.464-7.464-20.138-4.795-23.957,5.046l-19.376,49.927c-9.903,25.516-46.304,24.642-54.971-1.32l-95.005-284.591
			c-7.63-22.857,14.122-44.608,36.978-36.978l284.591,95.005C505.545,261.948,506.419,298.349,480.903,308.252z" class="svgShape colorfe9c14-2 selectable"></path><path fill="#3498DB" d="M480.919,308.269l-49.945,19.358c-9.817,3.824-12.504,16.499-5.029,23.974
			l54.888,54.888c12.66,12.66,12.66,33.185,0,45.845l-28.763,28.763c-12.66,12.66-33.185,12.66-45.845,0l-41.765-41.765
			c17.67-66.72,0.344-140.742-51.977-193.063c-42.712-42.712-99.993-62.104-155.897-58.143
			c-1.619-19.943,17.946-36.684,38.406-29.864l284.583,94.999C505.547,261.941,506.408,298.349,480.919,308.269z" opacity=".4" class="svgShape colorffffff-3 selectable"></path><path d="M430.241,346.777c-4.353-4.383-2.833-11.758,2.952-14l49.925-19.38c30.822-11.949,29.779-55.987-1.586-66.404
			l-39.067-13.053c-3.182-1.056-6.638,0.656-7.704,3.844c-1.066,3.192,0.656,6.641,3.846,7.706l39.077,13.058
			c20.537,6.815,21.249,35.659,1.03,43.494l-49.918,19.38c-13.942,5.386-17.74,23.329-7.178,33.951l67.496,67.45
			c3.33,3.358,3.339,8.791,0.019,12.111l-53.924,53.921c-3.323,3.32-8.753,3.311-12.09,0l-67.484-67.526
			c-10.64-10.579-28.571-6.708-33.932,7.183l-19.39,49.93c-7.801,20.133-36.645,19.577-43.496-1.042l-95.034-284.619
			c-2.826-8.496-0.733-17.349,5.599-23.676c6.325-6.332,15.175-8.43,23.666-5.599L380.834,226.2c3.192,1.07,6.641-0.661,7.704-3.848
			c1.066-3.187-0.656-6.636-3.846-7.702l-76.44-25.52c1.954-9.722,3.01-19.763,3.01-30.052c0-84.071-68.397-152.468-152.468-152.468
			C74.732,6.609,6.344,75.006,6.344,159.077c0,84.062,68.387,152.449,152.449,152.449c10.536,0,20.781-1.19,30.712-3.254
			l57.755,172.971c10.432,31.41,54.466,32.419,66.404,1.603l19.392-49.94c2.249-5.817,9.664-7.249,13.979-2.954l67.486,67.531
			c8.106,8.035,21.247,8.03,29.296-0.019l53.924-53.921c8.049-8.049,8.056-21.188,0-29.313L430.241,346.777z M158.794,299.349
			c-77.345,0-140.271-62.926-140.271-140.271c0-77.355,62.926-140.29,140.271-140.29c77.357,0,140.29,62.936,140.29,140.29
			c0,8.942-0.851,17.688-2.459,26.17l-99.728-33.296c-12.763-4.234-26.613-0.98-36.13,8.539s-12.789,23.362-8.539,36.139
			l33.422,100.097C176.955,298.428,167.982,299.349,158.794,299.349z" fill="#2980B9" class="svgShape color000000-4 selectable"></path></svg>