<svg xmlns="http://www.w3.org/2000/svg" id="Layer_1" x="0" y="0" enable-background="new 0 0 280 280" version="1.1" viewBox="0 0 280 280" xml:space="preserve"><rect width="250" height="250" x="15" y="15" fill="#ffec5e"/><path fill="#5a050a" d="M38.47 90.94c-.15 0-.29-.03-.43-.1-.5-.24-.71-.84-.46-1.34l1.15-2.38c.24-.5.84-.71 1.34-.46.5.24.71.84.46 1.34l-1.15 2.38C39.2 90.73 38.84 90.94 38.47 90.94zM41.68 84.3c-.15 0-.29-.03-.43-.1-.5-.24-.71-.84-.46-1.34l1.15-2.38c.24-.5.84-.71 1.34-.46.5.24.71.84.46 1.34l-1.15 2.38C42.41 84.09 42.06 84.3 41.68 84.3zM38.52 85.4c-.15 0-.29-.03-.43-.1l-2.38-1.15c-.5-.24-.71-.84-.46-1.34.24-.5.84-.71 1.34-.46l2.38 1.15c.5.24.71.84.46 1.34C39.25 85.19 38.9 85.4 38.52 85.4zM45.16 88.61c-.15 0-.29-.03-.43-.1l-2.38-1.15c-.5-.24-.71-.84-.46-1.34.24-.5.84-.71 1.34-.46l2.38 1.15c.5.24.71.84.46 1.34C45.89 88.4 45.53 88.61 45.16 88.61z"/><g><path fill="#5a050a" d="M54.97 46.62c-.15 0-.29-.03-.43-.1-.5-.24-.71-.84-.46-1.34l1.15-2.38c.24-.5.84-.71 1.34-.46.5.24.71.84.46 1.34l-1.15 2.38C55.7 46.41 55.35 46.62 54.97 46.62zM58.19 39.98c-.15 0-.29-.03-.43-.1-.5-.24-.71-.84-.46-1.34l1.15-2.38c.24-.5.84-.71 1.34-.46.5.24.71.84.46 1.34l-1.15 2.38C58.92 39.77 58.56 39.98 58.19 39.98z"/><g><path fill="#5a050a" d="M55.03 41.08c-.15 0-.29-.03-.43-.1l-2.38-1.15c-.5-.24-.71-.84-.46-1.34.24-.5.84-.71 1.34-.46l2.38 1.15c.5.24.71.84.46 1.34C55.76 40.87 55.4 41.08 55.03 41.08zM61.66 44.29c-.15 0-.29-.03-.43-.1l-2.38-1.15c-.5-.24-.71-.84-.46-1.34.24-.5.84-.71 1.34-.46l2.38 1.15c.5.24.71.84.46 1.34C62.39 44.08 62.04 44.29 61.66 44.29z"/></g></g><g><path fill="#5a050a" d="M30.75,67.24c-0.59,0-1.18-0.13-1.73-0.4c-0.95-0.46-1.67-1.27-2.02-2.27l0,0
					c-0.72-2.07,0.38-4.33,2.44-5.05c2.07-0.72,4.33,0.38,5.05,2.45c0.72,2.07-0.38,4.33-2.44,5.05
					C31.63,67.17,31.19,67.24,30.75,67.24z M30.76,61.3c-0.21,0-0.43,0.04-0.64,0.11c-1.02,0.36-1.57,1.48-1.21,2.5l0,0
					c0.17,0.5,0.53,0.9,1,1.12s1.01,0.26,1.5,0.09c0.5-0.17,0.9-0.53,1.12-1c0.23-0.47,0.26-1.01,0.09-1.5
					C32.33,61.81,31.57,61.3,30.76,61.3z"/></g><g><path fill="#5a050a" d="M225.8 60.44c-.41 0-.8-.26-.94-.67l-.87-2.5c-.18-.52.09-1.09.62-1.27s1.09.1 1.27.62l.87 2.5c.18.52-.09 1.09-.62 1.27C226.02 60.43 225.91 60.44 225.8 60.44zM228.22 67.41c-.41 0-.8-.26-.94-.67l-.87-2.5c-.18-.52.09-1.09.62-1.27s1.09.1 1.27.62l.87 2.5c.18.52-.09 1.09-.62 1.27C228.44 67.39 228.33 67.41 228.22 67.41zM228.81 61.9c-.41 0-.8-.26-.94-.67-.18-.52.09-1.09.62-1.27l2.5-.87c.52-.19 1.09.09 1.27.62s-.09 1.09-.62 1.27l-2.5.87C229.03 61.88 228.92 61.9 228.81 61.9zM221.85 64.32c-.41 0-.8-.26-.94-.67-.18-.52.09-1.09.62-1.27l2.5-.87c.52-.18 1.09.09 1.27.62s-.09 1.09-.62 1.27l-2.5.87C222.07 64.3 221.96 64.32 221.85 64.32z"/><g><path fill="#5a050a" d="M245.47 103.45c-.41 0-.8-.26-.94-.67l-.87-2.5c-.18-.52.09-1.09.62-1.27.52-.18 1.09.1 1.27.62l.87 2.5c.18.52-.09 1.09-.62 1.27C245.69 103.43 245.58 103.45 245.47 103.45zM247.89 110.41c-.41 0-.8-.26-.94-.67l-.87-2.5c-.18-.52.09-1.09.62-1.27.52-.18 1.09.09 1.27.62l.87 2.5c.18.52-.09 1.09-.62 1.27C248.11 110.4 248 110.41 247.89 110.41z"/><g><path fill="#5a050a" d="M248.48 104.91c-.41 0-.8-.26-.94-.67-.18-.52.09-1.09.62-1.27l2.5-.87c.52-.18 1.09.1 1.27.62.18.52-.09 1.09-.62 1.27l-2.5.87C248.7 104.89 248.59 104.91 248.48 104.91zM241.52 107.33c-.41 0-.8-.26-.94-.67-.18-.52.09-1.09.62-1.27l2.5-.87c.52-.18 1.09.1 1.27.62.18.52-.09 1.09-.62 1.27l-2.5.87C241.74 107.31 241.62 107.33 241.52 107.33z"/></g></g><g><path fill="#5a050a" d="M249.24,74.32c-0.59,0-1.18-0.13-1.73-0.4c-0.95-0.46-1.67-1.27-2.02-2.27c-0.35-1-0.28-2.08,0.18-3.03
					c0.46-0.95,1.27-1.67,2.27-2.02c1-0.35,2.08-0.29,3.03,0.18l0,0c1.97,0.95,2.8,3.33,1.84,5.3c-0.46,0.95-1.27,1.67-2.27,2.02
					C250.12,74.24,249.68,74.32,249.24,74.32z M249.24,68.38c-0.22,0-0.44,0.04-0.65,0.11c-0.5,0.17-0.9,0.53-1.13,1
					c-0.23,0.47-0.26,1.01-0.09,1.5c0.17,0.5,0.53,0.9,1,1.12c0.47,0.23,1.01,0.26,1.5,0.09c0.5-0.17,0.9-0.53,1.12-1
					c0.47-0.98,0.06-2.16-0.91-2.63l0,0C249.83,68.44,249.54,68.38,249.24,68.38z"/></g></g><g><path fill="#5a050a" d="M173.39,148.3c-0.01-0.55,0.43-1,0.99-1.01l0,0c0.55-0.01,1,0.43,1.01,0.98l0,0
				c0.01,0.56-0.43,1.01-0.98,1.02l0,0c-0.01,0-0.01,0-0.02,0l0,0C173.85,149.29,173.4,148.85,173.39,148.3z M170.32,149.16
				L170.32,149.16L170.32,149.16c-0.55-0.04-0.96-0.52-0.92-1.07l0,0c0.04-0.55,0.52-0.97,1.07-0.92l0,0
				c0.55,0.04,0.96,0.52,0.92,1.07l0,0c-0.04,0.53-0.48,0.92-0.99,0.92l0,0C170.37,149.16,170.34,149.16,170.32,149.16z
				 M177.39,148.16c-0.06-0.55,0.33-1.05,0.89-1.1l0,0c0.54-0.06,1.04,0.34,1.09,0.89l0,0c0.06,0.54-0.34,1.04-0.88,1.1l0,0
				c-0.04,0-0.07,0-0.11,0l0,0C177.88,149.05,177.44,148.67,177.39,148.16z M166.26,148.66L166.26,148.66L166.26,148.66
				c-0.54-0.09-0.91-0.61-0.82-1.15l0,0c0.09-0.55,0.61-0.91,1.16-0.82l0,0c0.54,0.09,0.91,0.61,0.81,1.15l0,0
				c-0.08,0.49-0.5,0.84-0.98,0.84l0,0C166.38,148.68,166.32,148.67,166.26,148.66z M181.35,147.64c-0.11-0.54,0.24-1.06,0.79-1.17
				l0,0c0.54-0.11,1.06,0.24,1.17,0.78l0,0c0.11,0.54-0.24,1.07-0.78,1.18l0,0l0,0l0,0c-0.07,0.01-0.13,0.02-0.2,0.02l0,0
				C181.86,148.45,181.45,148.12,181.35,147.64z M162.26,147.79c-0.53-0.14-0.85-0.69-0.7-1.22l0,0c0.14-0.54,0.69-0.86,1.22-0.71
				l0,0c0.53,0.14,0.85,0.69,0.71,1.22l0,0c-0.12,0.45-0.53,0.75-0.97,0.75l0,0C162.44,147.83,162.35,147.81,162.26,147.79z
				 M185.25,146.77c-0.16-0.53,0.15-1.09,0.67-1.25l0,0c0.53-0.15,1.09,0.15,1.25,0.68l0,0c0.16,0.52-0.14,1.08-0.67,1.24l0,0
				c-0.1,0.03-0.2,0.04-0.29,0.04l0,0C185.78,147.48,185.38,147.2,185.25,146.77z M158.37,146.55L158.37,146.55L158.37,146.55
				c-0.52-0.19-0.79-0.77-0.59-1.28l0,0c0.19-0.52,0.76-0.79,1.28-0.59l0,0c0.52,0.19,0.78,0.76,0.59,1.28l0,0
				c-0.15,0.4-0.53,0.66-0.94,0.66l0,0C158.6,146.62,158.48,146.6,158.37,146.55z M189.06,145.54c-0.21-0.52,0.04-1.1,0.55-1.31l0,0
				c0.51-0.2,1.09,0.04,1.3,0.56l0,0c0.21,0.51-0.04,1.09-0.55,1.3l0,0c-0.13,0.05-0.25,0.07-0.38,0.07l0,0
				C189.59,146.16,189.21,145.92,189.06,145.54z M154.6,144.96c-0.5-0.24-0.71-0.84-0.47-1.34l0,0c0.24-0.5,0.83-0.7,1.33-0.47l0,0
				c0.5,0.24,0.71,0.84,0.47,1.34l0,0c-0.17,0.36-0.53,0.57-0.9,0.57l0,0C154.89,145.06,154.74,145.02,154.6,144.96z M192.73,143.96
				c-0.26-0.5-0.06-1.1,0.43-1.35l0,0c0.49-0.26,1.09-0.06,1.35,0.43l0,0c0.25,0.49,0.06,1.09-0.43,1.35l0,0
				c-0.15,0.07-0.31,0.11-0.46,0.11l0,0C193.26,144.5,192.9,144.3,192.73,143.96z M151,143.02L151,143.02L151,143.02
				c-0.48-0.28-0.63-0.9-0.35-1.37l0,0c0.28-0.47,0.9-0.63,1.37-0.34l0,0c0.48,0.28,0.63,0.89,0.35,1.37l0,0
				c-0.19,0.31-0.52,0.48-0.86,0.48l0,0C151.33,143.16,151.16,143.12,151,143.02z M196.24,142.04c-0.3-0.46-0.16-1.08,0.3-1.38l0,0
				c0.47-0.3,1.09-0.16,1.39,0.31l0,0c0.29,0.46,0.15,1.08-0.31,1.38l0,0c-0.17,0.1-0.35,0.15-0.54,0.15l0,0
				C196.75,142.5,196.43,142.34,196.24,142.04z M147.59,140.76c-0.45-0.32-0.55-0.95-0.22-1.4l0,0c0.33-0.44,0.95-0.54,1.4-0.21l0,0
				c0.44,0.32,0.54,0.95,0.21,1.39l0,0c-0.19,0.27-0.5,0.41-0.81,0.41l0,0C147.97,140.95,147.76,140.89,147.59,140.76z
				 M199.56,139.81c-0.34-0.43-0.26-1.06,0.18-1.4l0,0c0.43-0.34,1.06-0.26,1.4,0.18l0,0c0.34,0.43,0.26,1.06-0.18,1.4l0,0l0,0l0,0
				c-0.18,0.14-0.4,0.21-0.61,0.21l0,0C200.05,140.2,199.76,140.07,199.56,139.81z M144.4,138.2c-0.42-0.37-0.45-1-0.09-1.41l0,0
				c0.36-0.42,1-0.46,1.41-0.09l0,0c0.41,0.37,0.46,1,0.09,1.41l0,0c-0.2,0.22-0.47,0.34-0.75,0.34l0,0
				C144.83,138.45,144.59,138.37,144.4,138.2z M202.66,137.29c-0.38-0.4-0.36-1.04,0.05-1.41l0,0c0.4-0.38,1.04-0.36,1.41,0.05l0,0
				c0.38,0.4,0.36,1.03-0.05,1.41l0,0c-0.19,0.18-0.43,0.27-0.68,0.27l0,0C203.13,137.61,202.86,137.5,202.66,137.29z
				 M141.46,135.36c-0.38-0.4-0.36-1.04,0.04-1.42l0,0c0.4-0.38,1.04-0.36,1.41,0.04l0,0c0.38,0.41,0.36,1.04-0.04,1.42l0,0
				c-0.19,0.18-0.44,0.27-0.68,0.27l0,0C141.92,135.67,141.66,135.56,141.46,135.36z M205.52,134.49c-0.41-0.37-0.45-1-0.08-1.41
				l0,0c0.37-0.41,1-0.45,1.41-0.08l0,0c0.41,0.37,0.45,1,0.08,1.41l0,0l0,0l0,0c-0.2,0.22-0.47,0.34-0.75,0.34l0,0
				C205.95,134.75,205.71,134.66,205.52,134.49z M138.79,132.26c-0.34-0.44-0.26-1.07,0.17-1.41l0,0c0.44-0.34,1.06-0.26,1.41,0.17
				l0,0c0.34,0.44,0.26,1.07-0.17,1.41l0,0c-0.19,0.14-0.4,0.21-0.62,0.21l0,0C139.28,132.64,138.99,132.51,138.79,132.26z
				 M208.11,131.45c-0.44-0.33-0.54-0.96-0.21-1.4l0,0c0.33-0.45,0.95-0.54,1.4-0.21l0,0c0.44,0.33,0.54,0.95,0.21,1.4l0,0l0,0l0,0
				c-0.2,0.26-0.5,0.4-0.81,0.4l0,0C208.5,131.64,208.29,131.58,208.11,131.45z M136.42,128.93c-0.3-0.47-0.17-1.09,0.3-1.39l0,0
				c0.46-0.3,1.08-0.16,1.38,0.3l0,0c0.3,0.47,0.16,1.08-0.3,1.38l0,0c-0.17,0.11-0.35,0.16-0.54,0.16l0,0
				C136.93,129.38,136.61,129.22,136.42,128.93z M210.41,128.18c-0.47-0.29-0.62-0.9-0.33-1.38l0,0c0.28-0.47,0.89-0.62,1.37-0.34
				l0,0c0.47,0.29,0.62,0.91,0.33,1.38l0,0c-0.18,0.31-0.51,0.48-0.85,0.48l0,0C210.75,128.32,210.57,128.27,210.41,128.18z
				 M134.36,125.39c-0.25-0.49-0.06-1.09,0.43-1.35l0,0c0.49-0.25,1.09-0.06,1.35,0.43l0,0c0.25,0.48,0.06,1.09-0.43,1.34l0,0
				c-0.15,0.08-0.3,0.12-0.46,0.12l0,0C134.89,125.93,134.54,125.73,134.36,125.39z M212.4,124.71c-0.5-0.24-0.7-0.84-0.46-1.34l0,0
				c0.24-0.5,0.84-0.7,1.34-0.46l0,0c0.49,0.24,0.7,0.84,0.46,1.33l0,0c-0.18,0.36-0.53,0.57-0.9,0.57l0,0
				C212.69,124.81,212.54,124.77,212.4,124.71z M132.64,121.68c-0.21-0.51,0.04-1.09,0.55-1.3l0,0c0.51-0.21,1.09,0.03,1.3,0.55l0,0
				c0.21,0.51-0.03,1.09-0.54,1.3l0,0c-0.13,0.05-0.26,0.07-0.38,0.07l0,0C133.17,122.3,132.8,122.07,132.64,121.68z M214.07,121.07
				c-0.52-0.2-0.78-0.77-0.59-1.29l0,0c0.19-0.51,0.77-0.78,1.28-0.58l0,0c0.52,0.19,0.78,0.77,0.59,1.28l0,0l0,0l0,0
				c-0.15,0.41-0.53,0.65-0.93,0.65l0,0C214.3,121.13,214.18,121.11,214.07,121.07z M131.27,117.83c-0.16-0.53,0.14-1.09,0.67-1.25
				l0,0c0.53-0.16,1.08,0.14,1.25,0.66h-0.01c0.16,0.53-0.13,1.09-0.66,1.25l0,0c-0.1,0.03-0.2,0.05-0.29,0.05l0,0
				C131.8,118.54,131.4,118.26,131.27,117.83z M215.38,117.29c-0.53-0.14-0.85-0.69-0.7-1.22l0,0c0.14-0.54,0.69-0.85,1.23-0.71l0,0
				c0.53,0.15,0.84,0.7,0.7,1.23l0,0c-0.12,0.45-0.52,0.74-0.96,0.74l0,0C215.56,117.33,215.47,117.32,215.38,117.29z
				 M130.26,113.86C130.26,113.86,130.26,113.86,130.26,113.86L130.26,113.86c-0.11-0.54,0.24-1.07,0.78-1.18l0,0
				c0.54-0.11,1.07,0.24,1.18,0.78l0,0c0.11,0.54-0.23,1.07-0.78,1.18l0,0c-0.06,0.02-0.13,0.02-0.2,0.02l0,0
				C130.78,114.66,130.36,114.34,130.26,113.86z M216.34,113.41c-0.54-0.09-0.91-0.61-0.81-1.15l0,0c0.09-0.55,0.61-0.91,1.16-0.82
				l0,0c0.54,0.1,0.91,0.62,0.81,1.16l0,0l0,0l0,0c-0.09,0.49-0.51,0.83-0.99,0.83l0,0C216.46,113.43,216.4,113.42,216.34,113.41z
				 M129.63,109.82c-0.06-0.55,0.33-1.04,0.88-1.1l0,0c0.55-0.06,1.04,0.33,1.1,0.88l0,0c0.07,0.55-0.33,1.05-0.88,1.11l0,0
				c-0.04,0-0.07,0-0.11,0l0,0C130.12,110.71,129.68,110.34,129.63,109.82z M216.94,109.46c-0.55-0.04-0.96-0.53-0.91-1.08l0,0
				c0.04-0.55,0.52-0.96,1.07-0.91l0,0c0.55,0.04,0.96,0.52,0.92,1.07l0,0c-0.04,0.53-0.48,0.92-1,0.92l0,0
				C217,109.46,216.97,109.46,216.94,109.46z M129.36,105.74C129.36,105.74,129.36,105.74,129.36,105.74L129.36,105.74
				c0-0.15,0.03-0.29,0.09-0.42l0,0c-0.06-0.13-0.09-0.28-0.09-0.43l0,0l0,0l0,0c0-0.55,0.45-1,1-1l0,0c0.55,0,1,0.45,1,1l0,0
				c0,0.14-0.03,0.28-0.09,0.41l0,0c0.06,0.12,0.09,0.26,0.09,0.41l0,0c0.01,0.55-0.43,1-0.98,1.02l0,0c0,0-0.01,0-0.02,0l0,0
				C129.82,106.73,129.37,106.29,129.36,105.74z M216.17,104.48L216.17,104.48c-0.01-0.55,0.43-1.01,0.99-1.01l0,0
				c0.55-0.01,1,0.44,1.01,0.99l0,0c0,0.55-0.44,1-0.99,1.01l0,0c-0.01,0-0.01,0-0.01,0l0,0
				C216.62,105.47,216.17,105.03,216.17,104.48z M130.45,101.89c-0.55-0.05-0.96-0.53-0.91-1.09l0,0c0.05-0.55,0.54-0.95,1.09-0.9
				l0,0c0.55,0.05,0.95,0.54,0.9,1.08l0,0c-0.05,0.53-0.48,0.92-0.99,0.92l0,0C130.51,101.9,130.48,101.89,130.45,101.89z
				 M215.95,100.58c-0.05-0.55,0.35-1.04,0.9-1.1l0,0c0.55-0.05,1.04,0.35,1.09,0.9l0,0c0.06,0.55-0.34,1.04-0.89,1.09l0,0
				c-0.04,0.01-0.07,0.01-0.11,0.01l0,0C216.44,101.48,216,101.09,215.95,100.58z M130.9,97.92c-0.54-0.1-0.9-0.62-0.8-1.17l0,0
				c0.1-0.54,0.62-0.9,1.16-0.8l0,0c0.55,0.1,0.91,0.62,0.81,1.17l0,0c-0.09,0.48-0.51,0.82-0.99,0.82l0,0
				C131.02,97.94,130.96,97.93,130.9,97.92z M215.38,96.72c-0.1-0.55,0.25-1.07,0.79-1.18l0,0c0.54-0.1,1.07,0.25,1.17,0.79l0,0
				c0.11,0.54-0.24,1.07-0.79,1.18l0,0c-0.06,0.01-0.13,0.01-0.19,0.01l0,0C215.89,97.52,215.48,97.19,215.38,96.72z M131.72,94.01
				c-0.53-0.15-0.84-0.71-0.69-1.24l0,0l0,0l0,0c0.15-0.53,0.7-0.84,1.24-0.69l0,0c0.53,0.15,0.83,0.7,0.69,1.24l0,0
				c-0.13,0.44-0.53,0.72-0.97,0.72l0,0C131.9,94.04,131.81,94.03,131.72,94.01z M214.46,92.92L214.46,92.92
				c-0.16-0.53,0.14-1.08,0.68-1.24l0,0c0.52-0.15,1.08,0.15,1.23,0.68l0,0c0,0,0,0,0.01,0l0,0c0.15,0.53-0.15,1.08-0.68,1.24l0,0
				c-0.1,0.03-0.19,0.04-0.28,0.04l0,0C214.98,93.64,214.58,93.36,214.46,92.92z M132.9,90.18c-0.52-0.19-0.77-0.77-0.57-1.29l0,0
				c0.19-0.51,0.77-0.77,1.29-0.57l0,0c0.51,0.2,0.77,0.78,0.57,1.29l0,0c-0.15,0.4-0.53,0.64-0.93,0.64l0,0
				C133.14,90.25,133.02,90.23,132.9,90.18z M213.18,89.23h0.01c-0.21-0.51,0.04-1.09,0.56-1.3l0,0c0.51-0.2,1.09,0.05,1.29,0.56
				l0,0l0,0l0,0c0.21,0.51-0.04,1.1-0.56,1.3l0,0c-0.12,0.05-0.24,0.07-0.37,0.07l0,0C213.72,89.86,213.34,89.62,213.18,89.23z
				 M134.42,86.49c-0.49-0.25-0.69-0.85-0.45-1.34l0,0c0.25-0.5,0.85-0.7,1.35-0.45l0,0c0.49,0.24,0.69,0.84,0.45,1.34l0,0
				c-0.18,0.35-0.53,0.55-0.9,0.55l0,0C134.72,86.59,134.57,86.56,134.42,86.49z M211.58,85.67L211.58,85.67
				c-0.26-0.49-0.06-1.09,0.43-1.34l0,0c0.49-0.25,1.1-0.06,1.35,0.44l0,0c0.25,0.49,0.05,1.09-0.44,1.34l0,0
				c-0.15,0.07-0.3,0.11-0.45,0.11l0,0C212.1,86.22,211.75,86.02,211.58,85.67z M136.29,82.95c-0.47-0.29-0.62-0.91-0.33-1.38l0,0
				c0.29-0.47,0.91-0.61,1.38-0.32l0,0c0.47,0.29,0.62,0.9,0.32,1.38l0,0c-0.19,0.3-0.51,0.47-0.85,0.47l0,0
				C136.63,83.1,136.45,83.05,136.29,82.95z M209.65,82.28L209.65,82.28c-0.3-0.47-0.16-1.09,0.31-1.38l0,0
				c0.46-0.3,1.08-0.15,1.37,0.31l0,0c0,0,0,0,0.01,0l0,0c0.29,0.47,0.15,1.09-0.31,1.38l0,0c-0.17,0.11-0.35,0.16-0.54,0.16l0,0
				C210.16,82.75,209.84,82.58,209.65,82.28z M138.47,79.6c-0.44-0.34-0.53-0.96-0.2-1.4l0,0c0.33-0.45,0.96-0.53,1.4-0.2l0,0
				c0.44,0.33,0.53,0.96,0.2,1.4l0,0c-0.2,0.26-0.5,0.4-0.8,0.4l0,0C138.86,79.8,138.65,79.73,138.47,79.6z M207.41,79.07v0.01
				c-0.34-0.44-0.25-1.07,0.18-1.41l0,0c0.44-0.33,1.07-0.25,1.41,0.19l0,0c0.33,0.44,0.25,1.06-0.19,1.4l0,0
				c-0.18,0.14-0.39,0.21-0.61,0.21l0,0C207.9,79.47,207.61,79.33,207.41,79.07z M140.95,76.46c-0.41-0.37-0.44-1-0.07-1.41l0,0
				c0.37-0.41,1-0.44,1.41-0.07l0,0c0.41,0.37,0.44,1,0.07,1.41l0,0c-0.2,0.22-0.47,0.33-0.74,0.33l0,0
				C141.38,76.72,141.14,76.63,140.95,76.46z M204.89,76.09L204.89,76.09c-0.37-0.41-0.35-1.04,0.06-1.41l0,0
				c0.4-0.38,1.03-0.35,1.41,0.05l0,0c0.37,0.41,0.35,1.04-0.06,1.41l0,0c-0.19,0.18-0.43,0.27-0.68,0.27l0,0
				C205.35,76.41,205.09,76.3,204.89,76.09z M143.7,73.56c-0.37-0.41-0.34-1.04,0.06-1.41l0,0c0.41-0.38,1.04-0.35,1.42,0.06l0,0
				c0.37,0.4,0.34,1.04-0.06,1.41l0,0c-0.2,0.18-0.44,0.26-0.68,0.26l0,0C144.17,73.88,143.9,73.77,143.7,73.56z M202.11,73.35
				L202.11,73.35c-0.41-0.37-0.45-1-0.08-1.42l0,0c0.37-0.41,1-0.44,1.42-0.07l0,0c0.4,0.37,0.44,1,0.07,1.41l0,0
				c-0.2,0.22-0.47,0.33-0.74,0.33l0,0C202.54,73.6,202.3,73.52,202.11,73.35z M146.71,70.93c-0.33-0.44-0.25-1.07,0.19-1.4l0,0
				c0.44-0.34,1.07-0.25,1.4,0.18l0,0c0.34,0.44,0.25,1.07-0.19,1.41l0,0c-0.18,0.13-0.39,0.2-0.6,0.2l0,0
				C147.21,71.32,146.91,71.18,146.71,70.93z M199.09,70.87c-0.45-0.33-0.54-0.96-0.21-1.4l0,0c0.33-0.44,0.96-0.53,1.4-0.2l0,0
				c0.45,0.33,0.54,0.96,0.21,1.4l0,0c-0.2,0.26-0.5,0.4-0.81,0.4l0,0C199.48,71.07,199.27,71.01,199.09,70.87z M149.95,68.58
				c-0.3-0.47-0.15-1.09,0.32-1.38l0,0l0,0l0,0c0.46-0.29,1.08-0.15,1.37,0.32l0,0c0.3,0.47,0.16,1.08-0.31,1.38l0,0
				c-0.17,0.1-0.35,0.15-0.53,0.15l0,0C150.47,69.05,150.14,68.88,149.95,68.58z M195.85,68.68c-0.47-0.29-0.62-0.9-0.33-1.37l0,0
				c0.29-0.47,0.9-0.62,1.38-0.33l0,0c0.47,0.29,0.61,0.9,0.33,1.37l0,0c-0.19,0.31-0.52,0.48-0.86,0.48l0,0
				C196.19,68.83,196.01,68.78,195.85,68.68z M153.39,66.54c-0.25-0.5-0.05-1.1,0.44-1.34l0,0c0.49-0.25,1.09-0.05,1.34,0.44l0,0
				c0.25,0.49,0.05,1.09-0.44,1.34l0,0c-0.14,0.08-0.3,0.11-0.45,0.11l0,0C153.92,67.09,153.56,66.89,153.39,66.54z M192.43,66.8
				c-0.5-0.24-0.7-0.84-0.46-1.34l0,0c0.25-0.49,0.84-0.7,1.34-0.45l0,0l0,0l0,0c0.49,0.24,0.7,0.84,0.46,1.33l0,0
				c-0.18,0.36-0.53,0.56-0.9,0.56l0,0C192.72,66.9,192.57,66.87,192.43,66.8z M157,64.83c-0.2-0.52,0.05-1.1,0.57-1.3l0,0
				c0.51-0.2,1.09,0.05,1.29,0.56l0,0c0.2,0.52-0.05,1.1-0.57,1.3l0,0c-0.12,0.05-0.24,0.07-0.36,0.07l0,0
				C157.53,65.46,157.15,65.22,157,64.83z M188.85,65.24L188.85,65.24c-0.52-0.19-0.78-0.77-0.58-1.29l0,0
				c0.2-0.51,0.77-0.77,1.29-0.58l0,0c0.52,0.2,0.77,0.78,0.58,1.3l0,0c-0.15,0.4-0.53,0.64-0.94,0.64l0,0
				C189.09,65.31,188.96,65.29,188.85,65.24z M160.75,63.45c-0.15-0.53,0.16-1.08,0.69-1.24l0,0c0.53-0.15,1.08,0.16,1.24,0.69l0,0
				c0.15,0.53-0.16,1.08-0.69,1.24l0,0c-0.09,0.02-0.18,0.04-0.27,0.04l0,0C161.28,64.18,160.88,63.89,160.75,63.45z M185.14,64.03
				c-0.53-0.15-0.85-0.7-0.7-1.24l0,0c0.15-0.53,0.7-0.84,1.23-0.69l0,0c0.54,0.15,0.85,0.7,0.7,1.23l0,0
				c-0.12,0.44-0.53,0.73-0.97,0.73l0,0C185.32,64.06,185.23,64.05,185.14,64.03z M164.62,62.43c-0.1-0.54,0.26-1.06,0.8-1.17l0,0
				c0.54-0.1,1.06,0.26,1.17,0.8l0,0c0.1,0.54-0.26,1.07-0.8,1.17l0,0c-0.06,0.01-0.12,0.02-0.19,0.02l0,0
				C165.13,63.25,164.71,62.91,164.62,62.43z M181.33,63.15c-0.54-0.09-0.91-0.61-0.81-1.15l0,0c0.1-0.55,0.62-0.91,1.17-0.81l0,0
				c0.54,0.09,0.9,0.62,0.8,1.16l0,0c-0.09,0.48-0.51,0.82-0.98,0.82l0,0C181.45,63.17,181.39,63.17,181.33,63.15z M168.57,61.78
				c-0.06-0.55,0.34-1.04,0.9-1.09l0,0c0.54-0.05,1.03,0.35,1.09,0.9l0,0c0.05,0.55-0.35,1.04-0.9,1.09l0,0c-0.03,0-0.07,0-0.1,0
				l0,0C169.05,62.68,168.61,62.3,168.57,61.78z M177.46,62.64c-0.55-0.05-0.96-0.53-0.91-1.08l0,0c0.05-0.55,0.53-0.96,1.08-0.91
				l0,0c0.55,0.05,0.96,0.53,0.91,1.08l0,0c-0.04,0.52-0.48,0.91-0.99,0.91l0,0C177.52,62.64,177.49,62.64,177.46,62.64z
				 M172.55,61.49c0-0.55,0.45-1,1-1.01l0,0c0.55,0,1,0.45,1,1l0,0c0,0.55-0.44,1-0.99,1h-0.01l0,0l0,0
				C173,62.48,172.55,62.04,172.55,61.49z"/><path fill="#90d542" d="M109.69,176.46c0,29.68,24.06,53.74,53.74,53.74c5,0,9.83-0.68,14.42-1.96l20.68,15.16l-3.61-23.41
						c13.48-9.75,22.24-25.62,22.24-43.53c0-29.67-24.06-53.73-53.74-53.73S109.69,146.79,109.69,176.46z"/><path fill="#90d542" d="M109.69,176.46c0,29.68,24.06,53.74,53.74,53.74c2.01,0,4.01-0.11,5.97-0.33
						c26.87-2.96,47.77-25.74,47.77-53.41c0-29.67-24.06-53.73-53.74-53.73c-24.93,0-45.9,16.97-51.96,39.99
						C110.31,167.11,109.69,171.7,109.69,176.46z"/><path fill="#fff" d="M119.49,145.54c8.73-6.16,19.38-9.76,30.89-9.76c29.68,0,53.74,24.06,53.74,53.74
						c0,11.51-3.62,22.17-9.77,30.91c13.81-9.73,22.83-25.79,22.83-43.97c0-29.67-24.06-53.73-53.74-53.73
						C145.27,122.73,129.21,131.74,119.49,145.54z" opacity=".26"/><path d="M109.69,176.46c0,29.68,24.06,53.74,53.74,53.74c2.01,0,4.01-0.11,5.97-0.33c-0.8-0.31-1.61-0.59-2.41-0.86
						c-14.95-5.08-28.7-13.64-39.86-24.79c-2.12-2.13-4.16-4.35-5.86-6.83c-6.44-9.44-7.23-21.46-9.4-32.67
						c-0.12-0.66-0.26-1.33-0.4-1.99C110.31,167.11,109.69,171.7,109.69,176.46z" opacity=".15"/><path fill="#5a050a" d="M198.53,244.4c-0.21,0-0.42-0.06-0.59-0.19l-20.29-14.88c-4.61,1.24-9.39,1.87-14.22,1.87
						c-30.18,0-54.74-24.56-54.74-54.74c0-30.18,24.56-54.73,54.74-54.73s54.74,24.55,54.74,54.73c0,17.3-8.27,33.69-22.16,43.98
						l3.51,22.81c0.06,0.4-0.12,0.8-0.47,1.01C198.89,244.35,198.71,244.4,198.53,244.4z M177.85,227.23c0.21,0,0.42,0.07,0.59,0.19
						l18.73,13.74l-3.24-21.02c-0.06-0.37,0.1-0.74,0.4-0.96c13.67-9.89,21.83-25.86,21.83-42.72c0-29.07-23.66-52.73-52.74-52.73
						s-52.74,23.65-52.74,52.73c0,29.08,23.66,52.74,52.74,52.74c4.82,0,9.58-0.65,14.15-1.93
						C177.67,227.24,177.76,227.23,177.85,227.23z"/><g><g opacity=".15"><circle cx="188.19" cy="176.97" r="8.86"/><circle cx="162.93" cy="176.97" r="8.86"/><circle cx="137.67" cy="176.97" r="8.86"/></g><circle cx="189.19" cy="175.96" r="8.86" fill="#fff"/><circle cx="163.93" cy="175.96" r="8.86" fill="#fff"/><circle cx="138.67" cy="175.96" r="8.86" fill="#fff"/><g opacity=".15"><path d="M182.39 170.3c1.53-1.23 3.46-1.97 5.57-1.97 4.9 0 8.87 3.97 8.87 8.87 0 2.11-.74 4.04-1.97 5.57 1.95-1.6 3.2-4.06 3.2-6.8 0-4.9-3.97-8.87-8.87-8.87C186.45 167.1 183.99 168.35 182.39 170.3zM157.08 170.32c1.53-1.23 3.51-2 5.62-2 4.9 0 8.84 3.97 8.84 8.87 0 2.11-.72 4.04-1.95 5.57 1.95-1.6 3.2-4.06 3.2-6.8 0-4.9-3.97-8.87-8.87-8.87C161.17 167.1 158.71 168.35 157.08 170.32zM131.83 170.32c1.53-1.23 3.51-2 5.62-2 4.88 0 8.84 3.97 8.84 8.87 0 2.11-.74 4.06-1.97 5.59 1.95-1.63 3.2-4.06 3.2-6.82 0-4.9-3.95-8.87-8.84-8.87C135.91 167.1 133.45 168.35 131.83 170.32z"/></g></g><g><path fill="#fa7494" d="M156.53,114.3c0,30.87-25.03,55.9-55.9,55.9c-5.2,0-10.23-0.71-15-2.04l-21.51,15.78l3.75-24.35
						c-14.02-10.14-23.14-26.65-23.14-45.28c0-30.86,25.03-55.89,55.9-55.89S156.53,83.44,156.53,114.3z"/><path fill="#fa7494" d="M156.53,114.3c0,30.87-25.03,55.9-55.9,55.9c-2.1,0-4.17-0.12-6.21-0.34
						c-27.95-3.08-49.69-26.78-49.69-55.56c0-30.86,25.03-55.89,55.9-55.89c25.93,0,47.74,17.66,54.05,41.6
						C155.88,104.58,156.53,109.36,156.53,114.3z"/><path fill="#fff" d="M146.34,82.14c-9.08-6.4-20.16-10.15-32.13-10.15c-30.87,0-55.9,25.03-55.9,55.9
						c0,11.97,3.76,23.06,10.17,32.15c-14.37-10.12-23.75-26.83-23.75-45.74c0-30.86,25.03-55.89,55.9-55.89
						C119.52,58.41,136.23,67.78,146.34,82.14z" opacity=".26"/><path d="M156.53,114.3c0,30.87-25.03,55.9-55.9,55.9c-2.1,0-4.17-0.12-6.21-0.34c0.83-0.32,1.68-0.61,2.5-0.89
						c15.55-5.29,29.85-14.18,41.47-25.79c2.2-2.21,4.33-4.52,6.09-7.1c6.69-9.82,7.52-22.32,9.78-33.99
						c0.13-0.69,0.27-1.39,0.42-2.07C155.88,104.58,156.53,109.36,156.53,114.3z" opacity=".15"/><path fill="#5a050a" d="M64.11,184.93c-0.18,0-0.36-0.05-0.52-0.15c-0.35-0.21-0.53-0.61-0.47-1.01l3.66-23.75
						c-14.45-10.69-23.05-27.74-23.05-45.73c0-31.37,25.53-56.89,56.9-56.89s56.9,25.52,56.9,56.89c0,31.38-25.53,56.9-56.9,56.9
						c-5.03,0-10.01-0.66-14.8-1.95L64.7,184.74C64.53,184.87,64.32,184.93,64.11,184.93z M100.63,59.41
						c-30.27,0-54.9,24.62-54.9,54.89c0,17.56,8.49,34.18,22.72,44.47c0.3,0.22,0.46,0.59,0.4,0.96l-3.38,21.96l19.57-14.35
						c0.25-0.18,0.57-0.24,0.86-0.16c4.76,1.33,9.72,2,14.73,2c30.27,0,54.9-24.63,54.9-54.9C155.53,84.03,130.9,59.41,100.63,59.41
						z"/><g><path fill="#fffffe" d="M124.59,119.52l-30.81,20.79c-4.17,2.82-9.79-0.18-9.79-5.21V93.51c0-5.03,5.62-8.01,9.79-5.2
						l30.81,20.79C128.29,111.59,128.29,117.03,124.59,119.52z"/><path d="M124.6,119.52l-5.05,3.4c0.34-2.25-0.57-4.65-2.69-6.09l-30.8-20.78c-0.66-0.44-1.35-0.75-2.06-0.9v-1.64
						c0-5.03,5.61-8.01,9.79-5.2l30.82,20.78C128.28,111.58,128.28,117.03,124.6,119.52z" opacity=".15"/><path fill="#5a050a" d="M90.29,142.4c-1.17,0-2.34-0.29-3.43-0.87c-2.42-1.29-3.86-3.69-3.86-6.43V93.51
						c0-2.74,1.44-5.14,3.86-6.42c2.42-1.29,5.22-1.14,7.5,0.39l30.81,20.79c2.01,1.36,3.21,3.61,3.21,6.04
						c0,2.42-1.2,4.68-3.21,6.04l-30.81,20.79C93.1,141.97,91.7,142.4,90.29,142.4z M90.28,88.22c-0.85,0-1.69,0.21-2.49,0.63
						c-1.75,0.93-2.8,2.67-2.8,4.66v41.59c0,1.99,1.05,3.73,2.8,4.66c1.75,0.93,3.78,0.83,5.43-0.28l30.81-20.79c0,0,0,0,0,0
						c1.48-1,2.33-2.59,2.33-4.38c0-1.79-0.85-3.38-2.33-4.38L93.23,89.14C92.32,88.53,91.3,88.22,90.28,88.22z"/></g></g><g><rect width="19.28" height="31.13" x="215.45" y="83.18" fill="#585d5b"/><polygon fill="#fff" points="215.45 83.19 215.45 114.3 219.78 114.3 219.78 87.52 234.72 87.52 234.72 83.19" opacity=".25"/><path fill="#fec399" d="M174.6,87.3h1.48c-2.48,0-4.49,2.01-4.49,4.49c0,1.24,0.5,2.36,1.31,3.18c0.82,0.81,1.94,1.32,3.18,1.32
						h1.48c-2.48,0-4.49,2.01-4.49,4.49c0,1.24,0.5,2.36,1.31,3.18c0.82,0.81,1.94,1.31,3.18,1.31h1.48c-2.48,0-4.49,2.01-4.49,4.49
						c0,1.24,0.5,2.36,1.31,3.18c0.82,0.81,1.94,1.32,3.18,1.32h28.14l8.27-2.95V86.76l-5.19-2.84l-7.28-14.17
						c-1.29-2.51-1.96-5.3-1.96-8.12c0-1.46-0.55-2.83-1.46-3.86c-0.91-1.03-2.19-1.73-3.65-1.87c-1.37-0.13-2.69,0.25-3.75,0.99
						c-0.93,0.65-1.66,1.58-2.06,2.69l-0.18,0.5c-1.23,3.39-1.4,7.06-0.49,10.54l2.01,7.7H174.6c-2.48,0-4.49,2.01-4.49,4.49
						c0,1.24,0.5,2.36,1.31,3.18C172.24,86.8,173.36,87.3,174.6,87.3z"/><path fill="#fff" d="M189.9,60.14c0.61-0.16,1.26-0.22,1.92-0.15c1.46,0.12,2.73,0.83,3.65,1.87c0.91,1.03,1.45,2.4,1.45,3.86
						c0,2.83,0.68,5.6,1.96,8.12l7.28,14.17l5.2,2.84v21.92l4.09-1.45V86.76l-5.18-2.84l-7.28-14.17c-1.3-2.52-1.96-5.3-1.96-8.12
						c0-1.48-0.55-2.83-1.46-3.87c-0.91-1.03-2.18-1.73-3.64-1.87c-1.38-0.12-2.69,0.26-3.75,1c-0.93,0.65-1.66,1.57-2.06,2.68
						l-0.19,0.5C189.92,60.1,189.92,60.11,189.9,60.14z" opacity=".25"/><path fill="#fff" d="M174.61,87.3h1.48c-2.48,0-4.49,2.02-4.49,4.5c0,1.24,0.5,2.36,1.31,3.18c0.82,0.81,1.94,1.31,3.18,1.31
						h1.48c-2.47,0-4.49,2.02-4.49,4.49c0,1.25,0.5,2.37,1.31,3.19c0.82,0.81,1.94,1.31,3.18,1.31h1.49c-2.48,0-4.49,2-4.49,4.49
						c0,1.24,0.49,2.37,1.31,3.18c0.82,0.82,1.94,1.32,3.18,1.32h2.18c-1.24,0-2.36-0.5-3.18-1.32c-0.81-0.81-1.31-1.94-1.31-3.18
						c0-2.48,2.02-4.49,4.49-4.49h-1.48c-1.24,0-2.36-0.5-3.18-1.31c-0.82-0.82-1.31-1.94-1.31-3.19c0-2.47,2-4.49,4.49-4.49h-1.49
						c-1.24,0-2.36-0.5-3.18-1.31c-0.81-0.82-1.31-1.94-1.31-3.18c0-2.48,2.02-4.5,4.49-4.5h-1.48c-1.24,0-2.36-0.49-3.18-1.31
						c-0.82-0.82-1.31-1.94-1.31-3.18c0-2.48,2.01-4.49,4.49-4.49h-2.18c-2.48,0-4.5,2-4.5,4.49c0,1.24,0.5,2.36,1.32,3.18
						C172.24,86.81,173.36,87.3,174.61,87.3z" opacity=".1"/><path fill="#5a050a" d="M207.18,115.26h-28.14c-1.46,0-2.84-0.57-3.88-1.61c-1.04-1.04-1.61-2.42-1.61-3.89
						c0-1.57,0.66-2.99,1.72-3.99c-0.58-0.27-1.12-0.64-1.59-1.11c-1.04-1.04-1.61-2.42-1.61-3.89c0-1.57,0.66-2.99,1.72-3.99
						c-0.58-0.27-1.12-0.64-1.59-1.11c-1.04-1.04-1.61-2.42-1.61-3.89c0-1.57,0.66-2.99,1.72-3.99c-0.58-0.27-1.12-0.64-1.59-1.11
						c-1.04-1.04-1.61-2.42-1.61-3.89c0-3.03,2.46-5.49,5.49-5.49h15.56l-1.68-6.44c-0.96-3.69-0.79-7.54,0.51-11.14l0.18-0.5
						c0.46-1.29,1.3-2.38,2.42-3.17c1.28-0.9,2.85-1.31,4.41-1.17c1.66,0.15,3.18,0.93,4.3,2.2c1.1,1.25,1.71,2.86,1.71,4.52
						c0,2.65,0.64,5.3,1.85,7.66l7.14,13.9l4.92,2.7c0.32,0.18,0.52,0.51,0.52,0.88v24.56c0,0.42-0.27,0.8-0.66,0.94l-8.27,2.95
						C207.41,115.25,207.3,115.26,207.18,115.26z M179.05,106.28c-1.93,0-3.49,1.57-3.49,3.49c0,0.93,0.36,1.81,1.02,2.47
						c0.66,0.66,1.54,1.02,2.47,1.02h27.96l7.44-2.65V87.35l-4.67-2.56c-0.18-0.1-0.32-0.24-0.41-0.42L202.1,70.2
						c-1.36-2.64-2.07-5.61-2.07-8.58c0-1.18-0.43-2.32-1.21-3.2c-0.78-0.88-1.84-1.43-2.99-1.53c-1.1-0.1-2.19,0.19-3.08,0.82
						c-0.78,0.55-1.37,1.31-1.69,2.21l-0.18,0.5c-1.16,3.21-1.32,6.65-0.46,9.95l2.01,7.7c0.08,0.3,0.01,0.62-0.18,0.86
						s-0.48,0.39-0.79,0.39H174.6c-1.92,0-3.49,1.57-3.49,3.49c0,0.93,0.36,1.81,1.02,2.47c0.66,0.65,1.54,1.02,2.47,1.02h1.48
						c0.55,0,1,0.45,1,1s-0.45,1-1,1c-1.93,0-3.49,1.57-3.49,3.49c0,0.93,0.36,1.81,1.02,2.47c0.66,0.66,1.54,1.02,2.47,1.02h1.48
						c0.55,0,1,0.45,1,1s-0.45,1-1,1c-1.92,0-3.49,1.57-3.49,3.49c0,0.93,0.36,1.81,1.02,2.47c0.66,0.66,1.54,1.02,2.47,1.02h1.48
						c0.55,0,1,0.45,1,1S179.6,106.28,179.05,106.28z"/><path fill="#5a050a" d="M184.89 88.3h-8.81c-.55 0-1-.45-1-1s.45-1 1-1h8.81c.55 0 1 .45 1 1S185.44 88.3 184.89 88.3zM181.23 97.29h-3.66c-.55 0-1-.45-1-1s.45-1 1-1h3.66c.55 0 1 .45 1 1S181.78 97.29 181.23 97.29zM186.05 106.28h-7c-.55 0-1-.45-1-1s.45-1 1-1h7c.55 0 1 .45 1 1S186.6 106.28 186.05 106.28zM234.73 115.31h-19.28c-.55 0-1-.45-1-1V83.18c0-.55.45-1 1-1h19.28c.55 0 1 .45 1 1v31.13C235.73 114.86 235.28 115.31 234.73 115.31zM216.45 113.31h17.28V84.18h-17.28V113.31z"/><g><path fill="#5a050a" d="M225.09,102.48c-0.55,0-1-0.45-1-1v-6.86c0-0.55,0.45-1,1-1s1,0.45,1,1v6.86
					C226.09,102.03,225.64,102.48,225.09,102.48z"/></g><g><path fill="#5a050a" d="M225.09,115.31c-0.55,0-1-0.45-1-1v-5.53c0-0.55,0.45-1,1-1s1,0.45,1,1v5.53
					C226.09,114.86,225.64,115.31,225.09,115.31z"/></g></g></g></svg>