<?xml version="1.0" standalone="no"?><!DOCTYPE svg PUBLIC "-//W3C//DTD SVG 1.1//EN" "http://www.w3.org/Graphics/SVG/1.1/DTD/svg11.dtd"><svg t="1753843834146" class="icon" viewBox="0 0 1024 1024" version="1.1" xmlns="http://www.w3.org/2000/svg" p-id="13391" xmlns:xlink="http://www.w3.org/1999/xlink" width="200" height="200"><path d="M871.936 272.213333C908.8 272.213333 938.666667 301.909333 938.666667 338.346667v406.485333c0 36.437333-29.909333 66.048-66.730667 66.048h-76.288v51.413333a33.450667 33.450667 0 0 1-33.322667 33.706667 33.621333 33.621333 0 0 1-19.370666-6.186667l-118.997334-83.669333h-99.968a66.432 66.432 0 0 1-66.688-66.048V696.32h191.488c24.576 0 44.458667-19.712 44.458667-44.032V272.213333h178.688zM588.373333 128c36.821333 0 66.730667 29.610667 66.730667 66.090667v404.906666c0 36.48-29.866667 66.090667-66.730667 66.090667H378.581333l-119.466666 85.888a33.365333 33.365333 0 0 1-34.688 2.645333 32.853333 32.853333 0 0 1-18.218667-29.44v-58.965333h-54.186667A66.432 66.432 0 0 1 85.333333 599.125333V194.133333C85.333333 157.610667 115.242667 128 152.064 128H588.373333zM234.069333 361.429333a42.666667 42.666667 0 1 0 0 85.333334 42.666667 42.666667 0 0 0 0-85.333334z m128 0a42.666667 42.666667 0 1 0 0 85.333334 42.666667 42.666667 0 0 0 0-85.333334z m128 0a42.666667 42.666667 0 1 0 0 85.333334 42.666667 42.666667 0 0 0 0-85.333334z" fill="#1296db" p-id="13392" data-spm-anchor-id="a313x.search_index.0.i12.38903a81oWRaXf" class="selected"></path></svg>
