<svg xmlns="http://www.w3.org/2000/svg" viewBox="0 0 24 24" id="ubisoft">
  <path d="M.5 12.444C.5 18.818 5.654 24 12.005 24S23.5 18.829 23.5 12.444v-.456C23.241-.304 6.98-4.89.716 6.634c.28.206.657.477.938.672-.433.887-.77 1.917-.961 2.997l-.01.071a11.697 11.697 0 0 0-.183 2.07zM13.828 2.309c6.114 1.55 9.403 7.957 6.998 13.94l.001-.001c-1.66 3.783-5.079 5.767-8.723 5.713-6.998-.347-9.036-8.466-4.357-11.393l.205.206c-.076.108-.356.325-.787 1.182-.507 1.041-.668 2.081-.604 2.732.367 5.67 8.271 6.83 10.987 1.214C21.009 8.217 11.822.401 3.67 6.374l-.183-.184c2.145-3.382 6.34-4.889 10.341-3.881zm-.399 13.223c.291.206.572.401.851.596l.001.001a3.124 3.124 0 0 1-2.572 1.355H11.7a3.143 3.143 0 0 1-3.134-3.151v-.004a3.152 3.152 0 0 1 2.9-3.143l.011-.001c1.013-.043 1.963.51 2.404 1.398.171.336.271.733.271 1.154 0 .698-.276 1.332-.723 1.795zM8.588 6.33c3.526-.52 6.901 1.68 7.688 4.759l-.28.098c-.087-.087-.227-.336-.766-.878-4.259-4.282-10.944-2.32-11.893 3.74l.001-.001c-.151 1.247-.054 1.637-.054 1.789l-.28.098c-.107-.206-.367-.932-.485-1.908-.304-3.718 2.219-7.068 6.069-7.697z"></path>
</svg>
