<?xml version="1.0" standalone="no"?><!DOCTYPE svg PUBLIC "-//W3C//DTD SVG 1.1//EN" "http://www.w3.org/Graphics/SVG/1.1/DTD/svg11.dtd"><svg t="1753871173131" class="icon" viewBox="0 0 1024 1024" version="1.1" xmlns="http://www.w3.org/2000/svg" p-id="4610" xmlns:xlink="http://www.w3.org/1999/xlink" width="200" height="200"><path d="M512 0C229.216 0 0 229.216 0 512s229.216 512 512 512 512-229.216 512-512S794.784 0 512 0z m181.344 47.776c13.664 0 27.744 1.28 36.7 4.256-92.576 19.2-166.4 105.376-165.984 203.936a45.049 45.049 0 0 0 0.416 7.264c155.3 37.984 224.864 131.424 224.864 260.7 1.7 129.28-100.7 271.36-273.5 271.776-139.52 0.416-285.024-119.04-285.856-310.624-0.416-126.72 68.7-248.736 155.744-320.864C471.072 93.408 587.552 48.16 693.344 47.744z" fill="#E60000" p-id="4611"></path></svg>